<?xml version="1.0" encoding="UTF-8" standalone="no"?>
<!DOCTYPE svg PUBLIC "-//W3C//DTD SVG 1.1//EN" "http://www.w3.org/Graphics/SVG/1.1/DTD/svg11.dtd">
<svg xmlns="http://www.w3.org/2000/svg" version="1.1" viewBox="0 0 120 80">
<g stroke-width="1.70" fill="none" stroke-linecap="butt">
<path stroke="#fff0a4" vector-effect="non-scaling-stroke" d="
  M 115.56 0.00
  Q 120.08 -0.45 120.00 4.06"
/>
<path stroke="#fff0a4" vector-effect="non-scaling-stroke" d="
  M 120.00 78.81
  Q 61.75 79.29 3.50 79.25
  Q 0.91 79.25 0.00 77.94"
/>
<path stroke="#fff0a4" vector-effect="non-scaling-stroke" d="
  M 26.79 34.75
  L 26.71 35.50"
/>
<path stroke="#ae9a67" vector-effect="non-scaling-stroke" d="
  M 26.71 35.50
  Q 25.51 35.69 24.63 36.40
  A 1.31 1.17 77.1 0 0 24.18 37.22
  C 23.78 40.33 24.39 42.90 24.02 46.22
  C 23.70 49.14 25.57 50.81 24.63 53.59
  A 0.77 0.67 -63.6 0 0 24.84 54.40
  C 27.12 56.12 27.09 48.14 27.54 46.75"
/>
<path stroke="#c5b07b" vector-effect="non-scaling-stroke" d="
  M 27.54 46.75
  L 28.46 46.75"
/>
<path stroke="#ae9a67" vector-effect="non-scaling-stroke" d="
  M 28.46 46.75
  L 29.18 50.51
  A 1.25 0.45 84.6 0 0 29.56 51.32
  C 31.48 52.59 31.02 48.47 31.04 47.75"
/>
<path stroke="#c5b07b" vector-effect="non-scaling-stroke" d="
  M 31.04 47.75
  L 35.35 47.36
  A 0.62 0.53 82.5 0 1 35.94 47.89
  C 37.32 56.80 39.18 47.07 39.70 47.30
  A 0.76 0.42 -84.5 0 1 39.98 47.95
  C 39.96 50.18 39.49 53.85 41.55 54.66
  A 0.72 0.70 30.7 0 0 42.37 54.46
  Q 43.16 53.53 42.31 52.61
  A 1.26 0.77 34.2 0 1 41.94 51.79
  Q 41.99 51.20 42.29 50.75"
/>
<path stroke="#ae9a67" vector-effect="non-scaling-stroke" d="
  M 42.29 50.75
  C 43.52 49.73 43.00 38.96 43.00 36.76
  A 0.57 0.52 3.0 0 0 42.49 36.24
  Q 41.03 36.09 40.54 34.84
  A 1.16 0.89 -45.0 0 1 40.66 33.92
  C 44.01 28.34 41.16 24.35 35.21 24.07
  C 27.38 23.71 22.38 26.10 26.79 34.75"
/>
<path stroke="#755d4a" vector-effect="non-scaling-stroke" d="
  M 42.29 50.75
  L 41.96 50.25"
/>
<path stroke="#af9e73" vector-effect="non-scaling-stroke" d="
  M 41.96 50.25
  Q 40.89 43.15 40.93 38.01
  Q 40.94 36.75 40.08 36.59
  A 0.63 0.50 -75.8 0 0 39.47 37.06
  Q 38.90 39.10 37.16 40.37
  Q 36.80 40.64 37.25 40.73
  Q 40.63 41.41 40.25 44.96"
/>
<path stroke="#755d4a" vector-effect="non-scaling-stroke" d="
  M 40.25 44.96
  L 28.25 44.76
  A 0.93 0.72 10.9 0 0 27.46 45.16
  Q 27.11 45.87 27.54 46.75"
/>
<path stroke="#af9e73" vector-effect="non-scaling-stroke" d="
  M 26.71 35.50
  Q 27.42 36.10 26.93 36.82
  A 1.45 0.93 -40.6 0 0 26.67 37.69
  L 27.11 41.36
  A 0.38 0.37 -14.7 0 0 27.62 41.65
  L 30.24 40.62
  Q 30.64 40.46 30.22 40.32
  C 27.10 39.24 28.78 36.57 26.79 34.75"
/>
<path stroke="#c5b487" vector-effect="non-scaling-stroke" d="
  M 41.96 50.25
  C 40.84 50.70 40.93 46.13 40.25 44.96"
/>
<path stroke="#755d4a" vector-effect="non-scaling-stroke" d="
  M 31.04 47.75
  Q 30.15 46.13 28.46 46.75"
/>
<path stroke="#80764d" vector-effect="non-scaling-stroke" d="
  M 61.32 33.95
  A 1.39 1.39 0.0 0 0 59.93 32.56
  A 1.39 1.39 0.0 0 0 58.54 33.95
  A 1.39 1.39 0.0 0 0 59.93 35.34
  A 1.39 1.39 0.0 0 0 61.32 33.95"
/>
<path stroke="#80764d" vector-effect="non-scaling-stroke" d="
  M 66.49 43.45
  L 66.21 39.73
  A 0.67 0.60 -11.8 0 1 66.68 39.09
  Q 71.00 37.75 66.73 36.55
  A 0.55 0.52 -77.0 0 1 66.36 35.93
  Q 66.84 33.33 64.18 34.08
  A 0.59 0.54 79.6 0 0 63.79 34.71
  Q 63.96 36.36 62.68 37.28
  A 0.80 0.61 -29.4 0 0 62.35 38.04
  Q 62.56 38.75 63.26 39.10
  A 0.80 0.68 17.4 0 1 63.69 39.79
  C 63.49 42.49 63.31 47.81 68.04 46.10
  A 0.91 0.82 -6.6 0 0 68.62 45.44
  Q 68.89 43.93 67.07 43.92
  A 0.60 0.50 -0.9 0 1 66.49 43.45"
/>
<path stroke="#8d7a55" vector-effect="non-scaling-stroke" d="
  M 55.00 37.09
  L 48.50 36.90
  A 0.55 0.48 -89.6 0 0 48.00 37.46
  L 48.01 45.47
  A 0.82 0.72 -80.7 0 0 48.47 46.21
  Q 49.36 46.57 50.33 46.21
  A 0.81 0.65 83.6 0 0 50.77 45.51
  L 50.87 40.22
  A 1.22 1.11 -22.2 0 1 51.27 39.38
  C 55.14 35.94 54.25 44.53 54.27 45.68
  A 0.62 0.58 -87.9 0 0 54.78 46.27
  Q 55.65 46.38 56.49 46.14
  A 0.68 0.64 -10.1 0 0 56.98 45.48
  L 56.61 38.74
  A 1.75 1.65 89.0 0 0 55.00 37.09"
/>
<path stroke="#8d7a55" vector-effect="non-scaling-stroke" d="
  M 61.2671 37.4624
  A 0.68 0.68 0.0 0 0 60.5883 36.7812
  L 59.1883 36.7788
  A 0.68 0.68 0.0 0 0 58.5071 37.4576
  L 58.4929 45.5976
  A 0.68 0.68 0.0 0 0 59.1717 46.2788
  L 60.5717 46.2812
  A 0.68 0.68 0.0 0 0 61.2529 45.6024
  L 61.2671 37.4624"
/>
<path stroke="#80764d" vector-effect="non-scaling-stroke" d="
  M 73.47 43.70
  C 73.10 41.71 74.41 35.71 71.14 36.77
  A 0.81 0.79 85.5 0 0 70.59 37.43
  Q 70.03 41.50 71.16 45.20
  A 1.48 1.45 -8.2 0 0 72.57 46.23
  L 78.78 46.21
  A 0.55 0.55 2.9 0 0 79.33 45.72
  C 79.47 44.13 80.90 35.28 77.18 36.86
  A 0.83 0.65 83.0 0 0 76.76 37.56
  L 76.45 43.61
  A 0.61 0.58 -89.4 0 1 75.89 44.19
  L 74.05 44.25
  A 0.66 0.55 83.1 0 1 73.47 43.70"
/>
<path stroke="#80764d" vector-effect="non-scaling-stroke" d="
  M 86.24 36.76
  C 84.78 36.90 83.35 36.59 81.98 36.74
  A 0.60 0.52 87.9 0 0 81.51 37.32
  L 81.33 45.45
  A 0.77 0.63 -81.8 0 0 81.76 46.16
  Q 82.64 46.45 83.58 46.19
  A 0.74 0.56 85.8 0 0 84.01 45.53
  L 84.22 39.78
  A 0.82 0.70 83.7 0 1 84.72 39.05
  L 86.27 38.58
  Q 87.04 38.35 87.17 38.21
  Q 87.75 37.62 87.14 37.03
  A 1.24 0.90 -19.1 0 0 86.24 36.76"
/>
<path stroke="#80764d" vector-effect="non-scaling-stroke" d="
  M 92.70 40.03
  L 89.82 40.45
  A 1.91 1.10 7.3 0 0 88.93 40.82
  Q 85.93 43.44 88.85 45.97
  A 1.48 1.21 -20.4 0 0 89.75 46.28
  L 95.23 46.22
  A 0.60 0.58 4.5 0 0 95.82 45.73
  Q 96.44 42.04 95.54 38.38
  A 1.31 1.23 -81.5 0 0 95.01 37.61
  Q 91.93 35.57 88.86 37.73
  A 0.56 0.51 -34.4 0 0 88.68 38.47
  C 89.70 39.94 92.25 37.89 93.02 39.47
  A 0.41 0.39 -16.8 0 1 92.70 40.03"
/>
<path stroke="#ae9a67" vector-effect="non-scaling-stroke" d="
  M 27.01 30.54
  Q 28.94 34.18 29.17 38.27
  A 1.78 1.67 88.3 0 0 30.83 39.94
  L 35.84 39.99
  A 2.08 2.08 -83.3 0 0 37.89 38.37
  L 40.00 29.00"
/>
<path stroke="#987e68" vector-effect="non-scaling-stroke" d="
  M 40.00 29.00
  C 42.59 27.98 38.71 24.90 36.50 25.29"
/>
<path stroke="#755d4a" vector-effect="non-scaling-stroke" d="
  M 36.50 25.29
  Q 32.02 24.94 31.01 24.97
  Q 24.64 25.17 27.01 30.54"
/>
<path stroke="#ae947c" vector-effect="non-scaling-stroke" d="
  M 36.50 25.29
  C 37.75 26.79 40.64 25.64 40.00 29.00"
/>
<path stroke="#c5b07b" vector-effect="non-scaling-stroke" d="
  M 40.00 29.00
  C 37.14 25.36 28.17 24.68 27.01 30.54"
/>
<path stroke="#987e68" vector-effect="non-scaling-stroke" d="
  M 25.69 44.69
  Q 25.82 45.86 25.04 49.00
  Q 24.78 50.06 25.45 50.20
  A 0.59 0.39 -79.1 0 0 25.95 49.69
  L 26.86 44.98
  Q 26.99 44.30 26.93 44.03
  Q 26.25 41.22 26.01 38.35
  C 25.98 37.92 26.64 36.27 25.36 37.18
  A 0.93 0.81 -22.8 0 0 24.96 37.99
  L 25.69 44.69"
/>
<path stroke="#af9e73" vector-effect="non-scaling-stroke" d="
  M 38.9503 42.8285
  A 0.85 0.85 0.0 0 0 38.1078 41.9711
  L 28.6881 41.8889
  A 0.85 0.85 0.0 0 0 27.8307 42.7315
  L 27.8297 42.8515
  A 0.85 0.85 0.0 0 0 28.6722 43.7089
  L 38.0919 43.7911
  A 0.85 0.85 0.0 0 0 38.9493 42.9485
  L 38.9503 42.8285"
/>
<path stroke="#807a59" vector-effect="non-scaling-stroke" d="
  M 93.4136 42.9579
  A 1.74 1.06 -10.0 0 0 91.5159 42.2161
  A 1.74 1.06 -10.0 0 0 89.9864 43.5621
  A 1.74 1.06 -10.0 0 0 91.8841 44.3039
  A 1.74 1.06 -10.0 0 0 93.4136 42.9579"
/>
<path stroke="#ae947c" vector-effect="non-scaling-stroke" d="
  M 37.5914 49.8190
  A 1.16 0.68 92.4 0 0 38.3194 48.6885
  A 1.16 0.68 92.4 0 0 37.6886 47.5010
  A 1.16 0.68 92.4 0 0 36.9606 48.6315
  A 1.16 0.68 92.4 0 0 37.5914 49.8190"
/>
</g>
<path fill="#feec98" d="
  M 0.00 0.00
  L 115.56 0.00
  Q 120.08 -0.45 120.00 4.06
  L 120.00 78.81
  Q 61.75 79.29 3.50 79.25
  Q 0.91 79.25 0.00 77.94
  L 0.00 0.00
  Z
  M 26.79 34.75
  L 26.71 35.50
  Q 25.51 35.69 24.63 36.40
  A 1.31 1.17 77.1 0 0 24.18 37.22
  C 23.78 40.33 24.39 42.90 24.02 46.22
  C 23.70 49.14 25.57 50.81 24.63 53.59
  A 0.77 0.67 -63.6 0 0 24.84 54.40
  C 27.12 56.12 27.09 48.14 27.54 46.75
  L 28.46 46.75
  L 29.18 50.51
  A 1.25 0.45 84.6 0 0 29.56 51.32
  C 31.48 52.59 31.02 48.47 31.04 47.75
  L 35.35 47.36
  A 0.62 0.53 82.5 0 1 35.94 47.89
  C 37.32 56.80 39.18 47.07 39.70 47.30
  A 0.76 0.42 -84.5 0 1 39.98 47.95
  C 39.96 50.18 39.49 53.85 41.55 54.66
  A 0.72 0.70 30.7 0 0 42.37 54.46
  Q 43.16 53.53 42.31 52.61
  A 1.26 0.77 34.2 0 1 41.94 51.79
  Q 41.99 51.20 42.29 50.75
  C 43.52 49.73 43.00 38.96 43.00 36.76
  A 0.57 0.52 3.0 0 0 42.49 36.24
  Q 41.03 36.09 40.54 34.84
  A 1.16 0.89 -45.0 0 1 40.66 33.92
  C 44.01 28.34 41.16 24.35 35.21 24.07
  C 27.38 23.71 22.38 26.10 26.79 34.75
  Z
  M 61.32 33.95
  A 1.39 1.39 0.0 0 0 59.93 32.56
  A 1.39 1.39 0.0 0 0 58.54 33.95
  A 1.39 1.39 0.0 0 0 59.93 35.34
  A 1.39 1.39 0.0 0 0 61.32 33.95
  Z
  M 66.49 43.45
  L 66.21 39.73
  A 0.67 0.60 -11.8 0 1 66.68 39.09
  Q 71.00 37.75 66.73 36.55
  A 0.55 0.52 -77.0 0 1 66.36 35.93
  Q 66.84 33.33 64.18 34.08
  A 0.59 0.54 79.6 0 0 63.79 34.71
  Q 63.96 36.36 62.68 37.28
  A 0.80 0.61 -29.4 0 0 62.35 38.04
  Q 62.56 38.75 63.26 39.10
  A 0.80 0.68 17.4 0 1 63.69 39.79
  C 63.49 42.49 63.31 47.81 68.04 46.10
  A 0.91 0.82 -6.6 0 0 68.62 45.44
  Q 68.89 43.93 67.07 43.92
  A 0.60 0.50 -0.9 0 1 66.49 43.45
  Z
  M 55.00 37.09
  L 48.50 36.90
  A 0.55 0.48 -89.6 0 0 48.00 37.46
  L 48.01 45.47
  A 0.82 0.72 -80.7 0 0 48.47 46.21
  Q 49.36 46.57 50.33 46.21
  A 0.81 0.65 83.6 0 0 50.77 45.51
  L 50.87 40.22
  A 1.22 1.11 -22.2 0 1 51.27 39.38
  C 55.14 35.94 54.25 44.53 54.27 45.68
  A 0.62 0.58 -87.9 0 0 54.78 46.27
  Q 55.65 46.38 56.49 46.14
  A 0.68 0.64 -10.1 0 0 56.98 45.48
  L 56.61 38.74
  A 1.75 1.65 89.0 0 0 55.00 37.09
  Z
  M 61.2671 37.4624
  A 0.68 0.68 0.0 0 0 60.5883 36.7812
  L 59.1883 36.7788
  A 0.68 0.68 0.0 0 0 58.5071 37.4576
  L 58.4929 45.5976
  A 0.68 0.68 0.0 0 0 59.1717 46.2788
  L 60.5717 46.2812
  A 0.68 0.68 0.0 0 0 61.2529 45.6024
  L 61.2671 37.4624
  Z
  M 73.47 43.70
  C 73.10 41.71 74.41 35.71 71.14 36.77
  A 0.81 0.79 85.5 0 0 70.59 37.43
  Q 70.03 41.50 71.16 45.20
  A 1.48 1.45 -8.2 0 0 72.57 46.23
  L 78.78 46.21
  A 0.55 0.55 2.9 0 0 79.33 45.72
  C 79.47 44.13 80.90 35.28 77.18 36.86
  A 0.83 0.65 83.0 0 0 76.76 37.56
  L 76.45 43.61
  A 0.61 0.58 -89.4 0 1 75.89 44.19
  L 74.05 44.25
  A 0.66 0.55 83.1 0 1 73.47 43.70
  Z
  M 86.24 36.76
  C 84.78 36.90 83.35 36.59 81.98 36.74
  A 0.60 0.52 87.9 0 0 81.51 37.32
  L 81.33 45.45
  A 0.77 0.63 -81.8 0 0 81.76 46.16
  Q 82.64 46.45 83.58 46.19
  A 0.74 0.56 85.8 0 0 84.01 45.53
  L 84.22 39.78
  A 0.82 0.70 83.7 0 1 84.72 39.05
  L 86.27 38.58
  Q 87.04 38.35 87.17 38.21
  Q 87.75 37.62 87.14 37.03
  A 1.24 0.90 -19.1 0 0 86.24 36.76
  Z
  M 92.70 40.03
  L 89.82 40.45
  A 1.91 1.10 7.3 0 0 88.93 40.82
  Q 85.93 43.44 88.85 45.97
  A 1.48 1.21 -20.4 0 0 89.75 46.28
  L 95.23 46.22
  A 0.60 0.58 4.5 0 0 95.82 45.73
  Q 96.44 42.04 95.54 38.38
  A 1.31 1.23 -81.5 0 0 95.01 37.61
  Q 91.93 35.57 88.86 37.73
  A 0.56 0.51 -34.4 0 0 88.68 38.47
  C 89.70 39.94 92.25 37.89 93.02 39.47
  A 0.41 0.39 -16.8 0 1 92.70 40.03
  Z"
/>
<path fill="#fff4b0" d="
  M 115.56 0.00
  L 120.00 0.00
  L 120.00 4.06
  Q 120.08 -0.45 115.56 0.00
  Z"
/>
<path fill="#5e4736" d="
  M 42.29 50.75
  L 41.96 50.25
  Q 40.89 43.15 40.93 38.01
  Q 40.94 36.75 40.08 36.59
  A 0.63 0.50 -75.8 0 0 39.47 37.06
  Q 38.90 39.10 37.16 40.37
  Q 36.80 40.64 37.25 40.73
  Q 40.63 41.41 40.25 44.96
  L 28.25 44.76
  A 0.93 0.72 10.9 0 0 27.46 45.16
  Q 27.11 45.87 27.54 46.75
  C 27.09 48.14 27.12 56.12 24.84 54.40
  A 0.77 0.67 -63.6 0 1 24.63 53.59
  C 25.57 50.81 23.70 49.14 24.02 46.22
  C 24.39 42.90 23.78 40.33 24.18 37.22
  A 1.31 1.17 77.1 0 1 24.63 36.40
  Q 25.51 35.69 26.71 35.50
  Q 27.42 36.10 26.93 36.82
  A 1.45 0.93 -40.6 0 0 26.67 37.69
  L 27.11 41.36
  A 0.38 0.37 -14.7 0 0 27.62 41.65
  L 30.24 40.62
  Q 30.64 40.46 30.22 40.32
  C 27.10 39.24 28.78 36.57 26.79 34.75
  C 22.38 26.10 27.38 23.71 35.21 24.07
  C 41.16 24.35 44.01 28.34 40.66 33.92
  A 1.16 0.89 -45.0 0 0 40.54 34.84
  Q 41.03 36.09 42.49 36.24
  A 0.57 0.52 3.0 0 1 43.00 36.76
  C 43.00 38.96 43.52 49.73 42.29 50.75
  Z
  M 27.01 30.54
  Q 28.94 34.18 29.17 38.27
  A 1.78 1.67 88.3 0 0 30.83 39.94
  L 35.84 39.99
  A 2.08 2.08 -83.3 0 0 37.89 38.37
  L 40.00 29.00
  C 42.59 27.98 38.71 24.90 36.50 25.29
  Q 32.02 24.94 31.01 24.97
  Q 24.64 25.17 27.01 30.54
  Z
  M 25.69 44.69
  Q 25.82 45.86 25.04 49.00
  Q 24.78 50.06 25.45 50.20
  A 0.59 0.39 -79.1 0 0 25.95 49.69
  L 26.86 44.98
  Q 26.99 44.30 26.93 44.03
  Q 26.25 41.22 26.01 38.35
  C 25.98 37.92 26.64 36.27 25.36 37.18
  A 0.93 0.81 -22.8 0 0 24.96 37.99
  L 25.69 44.69
  Z
  M 38.9503 42.8285
  A 0.85 0.85 0.0 0 0 38.1078 41.9711
  L 28.6881 41.8889
  A 0.85 0.85 0.0 0 0 27.8307 42.7315
  L 27.8297 42.8515
  A 0.85 0.85 0.0 0 0 28.6722 43.7089
  L 38.0919 43.7911
  A 0.85 0.85 0.0 0 0 38.9493 42.9485
  L 38.9503 42.8285
  Z"
/>
<path fill="#8b735d" d="
  M 36.50 25.29
  C 37.75 26.79 40.64 25.64 40.00 29.00
  C 37.14 25.36 28.17 24.68 27.01 30.54
  Q 24.64 25.17 31.01 24.97
  Q 32.02 24.94 36.50 25.29
  Z"
/>
<path fill="#d1b59a" d="
  M 40.00 29.00
  C 40.64 25.64 37.75 26.79 36.50 25.29
  C 38.71 24.90 42.59 27.98 40.00 29.00
  Z"
/>
<path fill="#feec98" d="
  M 40.00 29.00
  L 37.89 38.37
  A 2.08 2.08 -83.3 0 1 35.84 39.99
  L 30.83 39.94
  A 1.78 1.67 88.3 0 1 29.17 38.27
  Q 28.94 34.18 27.01 30.54
  C 28.17 24.68 37.14 25.36 40.00 29.00
  Z"
/>
<circle fill="#010001" cx="59.93" cy="33.95" r="1.39"/>
<path fill="#010001" d="
  M 67.07 43.92
  Q 68.89 43.93 68.62 45.44
  A 0.91 0.82 -6.6 0 1 68.04 46.10
  C 63.31 47.81 63.49 42.49 63.69 39.79
  A 0.80 0.68 17.4 0 0 63.26 39.10
  Q 62.56 38.75 62.35 38.04
  A 0.80 0.61 -29.4 0 1 62.68 37.28
  Q 63.96 36.36 63.79 34.71
  A 0.59 0.54 79.6 0 1 64.18 34.08
  Q 66.84 33.33 66.36 35.93
  A 0.55 0.52 -77.0 0 0 66.73 36.55
  Q 71.00 37.75 66.68 39.09
  A 0.67 0.60 -11.8 0 0 66.21 39.73
  L 66.49 43.45
  A 0.60 0.50 -0.9 0 0 67.07 43.92
  Z"
/>
<path fill="#fff4b0" d="
  M 26.79 34.75
  C 28.78 36.57 27.10 39.24 30.22 40.32
  Q 30.64 40.46 30.24 40.62
  L 27.62 41.65
  A 0.38 0.37 -14.7 0 1 27.11 41.36
  L 26.67 37.69
  A 1.45 0.93 -40.6 0 1 26.93 36.82
  Q 27.42 36.10 26.71 35.50
  L 26.79 34.75
  Z"
/>
<path fill="#fff4b0" d="
  M 41.96 50.25
  C 40.84 50.70 40.93 46.13 40.25 44.96
  Q 40.63 41.41 37.25 40.73
  Q 36.80 40.64 37.16 40.37
  Q 38.90 39.10 39.47 37.06
  A 0.63 0.50 -75.8 0 1 40.08 36.59
  Q 40.94 36.75 40.93 38.01
  Q 40.89 43.15 41.96 50.25
  Z"
/>
<path fill="#1b0711" d="
  M 55.00 37.09
  A 1.75 1.65 89.0 0 1 56.61 38.74
  L 56.98 45.48
  A 0.68 0.64 -10.1 0 1 56.49 46.14
  Q 55.65 46.38 54.78 46.27
  A 0.62 0.58 -87.9 0 1 54.27 45.68
  C 54.25 44.53 55.14 35.94 51.27 39.38
  A 1.22 1.11 -22.2 0 0 50.87 40.22
  L 50.77 45.51
  A 0.81 0.65 83.6 0 1 50.33 46.21
  Q 49.36 46.57 48.47 46.21
  A 0.82 0.72 -80.7 0 1 48.01 45.47
  L 48.00 37.46
  A 0.55 0.48 -89.6 0 1 48.50 36.90
  L 55.00 37.09
  Z"
/>
<rect fill="#1b0711" x="-1.38" y="-4.75" transform="translate(59.88,41.53) rotate(0.1)" width="2.76" height="9.50" rx="0.68"/>
<path fill="#010001" d="
  M 74.05 44.25
  L 75.89 44.19
  A 0.61 0.58 -89.4 0 0 76.45 43.61
  L 76.76 37.56
  A 0.83 0.65 83.0 0 1 77.18 36.86
  C 80.90 35.28 79.47 44.13 79.33 45.72
  A 0.55 0.55 2.9 0 1 78.78 46.21
  L 72.57 46.23
  A 1.48 1.45 -8.2 0 1 71.16 45.20
  Q 70.03 41.50 70.59 37.43
  A 0.81 0.79 85.5 0 1 71.14 36.77
  C 74.41 35.71 73.10 41.71 73.47 43.70
  A 0.66 0.55 83.1 0 0 74.05 44.25
  Z"
/>
<path fill="#010001" d="
  M 81.98 36.74
  C 83.35 36.59 84.78 36.90 86.24 36.76
  A 1.24 0.90 -19.1 0 1 87.14 37.03
  Q 87.75 37.62 87.17 38.21
  Q 87.04 38.35 86.27 38.58
  L 84.72 39.05
  A 0.82 0.70 83.7 0 0 84.22 39.78
  L 84.01 45.53
  A 0.74 0.56 85.8 0 1 83.58 46.19
  Q 82.64 46.45 81.76 46.16
  A 0.77 0.63 -81.8 0 1 81.33 45.45
  L 81.51 37.32
  A 0.60 0.52 87.9 0 1 81.98 36.74
  Z"
/>
<path fill="#010001" d="
  M 93.02 39.47
  C 92.25 37.89 89.70 39.94 88.68 38.47
  A 0.56 0.51 -34.4 0 1 88.86 37.73
  Q 91.93 35.57 95.01 37.61
  A 1.31 1.23 -81.5 0 1 95.54 38.38
  Q 96.44 42.04 95.82 45.73
  A 0.60 0.58 4.5 0 1 95.23 46.22
  L 89.75 46.28
  A 1.48 1.21 -20.4 0 1 88.85 45.97
  Q 85.93 43.44 88.93 40.82
  A 1.91 1.10 7.3 0 1 89.82 40.45
  L 92.70 40.03
  A 0.41 0.39 -16.8 0 0 93.02 39.47
  Z
  M 93.4136 42.9579
  A 1.74 1.06 -10.0 0 0 91.5159 42.2161
  A 1.74 1.06 -10.0 0 0 89.9864 43.5621
  A 1.74 1.06 -10.0 0 0 91.8841 44.3039
  A 1.74 1.06 -10.0 0 0 93.4136 42.9579
  Z"
/>
<path fill="#d1b59a" d="
  M 25.69 44.69
  L 24.96 37.99
  A 0.93 0.81 -22.8 0 1 25.36 37.18
  C 26.64 36.27 25.98 37.92 26.01 38.35
  Q 26.25 41.22 26.93 44.03
  Q 26.99 44.30 26.86 44.98
  L 25.95 49.69
  A 0.59 0.39 -79.1 0 1 25.45 50.20
  Q 24.78 50.06 25.04 49.00
  Q 25.82 45.86 25.69 44.69
  Z"
/>
<rect fill="#fff4b0" x="-5.56" y="-0.91" transform="translate(33.39,42.84) rotate(0.5)" width="11.12" height="1.82" rx="0.85"/>
<ellipse fill="#fff4b0" cx="0.00" cy="0.00" transform="translate(91.70,43.26) rotate(-10.0)" rx="1.74" ry="1.06"/>
<path fill="#8b735d" d="
  M 40.25 44.96
  C 40.93 46.13 40.84 50.70 41.96 50.25
  L 42.29 50.75
  Q 41.99 51.20 41.94 51.79
  A 1.26 0.77 34.2 0 0 42.31 52.61
  Q 43.16 53.53 42.37 54.46
  A 0.72 0.70 30.7 0 1 41.55 54.66
  C 39.49 53.85 39.96 50.18 39.98 47.95
  A 0.76 0.42 -84.5 0 0 39.70 47.30
  C 39.18 47.07 37.32 56.80 35.94 47.89
  A 0.62 0.53 82.5 0 0 35.35 47.36
  L 31.04 47.75
  Q 30.15 46.13 28.46 46.75
  L 27.54 46.75
  Q 27.11 45.87 27.46 45.16
  A 0.93 0.72 10.9 0 1 28.25 44.76
  L 40.25 44.96
  Z
  M 37.5914 49.8190
  A 1.16 0.68 92.4 0 0 38.3194 48.6885
  A 1.16 0.68 92.4 0 0 37.6886 47.5010
  A 1.16 0.68 92.4 0 0 36.9606 48.6315
  A 1.16 0.68 92.4 0 0 37.5914 49.8190
  Z"
/>
<path fill="#5e4736" d="
  M 31.04 47.75
  C 31.02 48.47 31.48 52.59 29.56 51.32
  A 1.25 0.45 84.6 0 1 29.18 50.51
  L 28.46 46.75
  Q 30.15 46.13 31.04 47.75
  Z"
/>
<ellipse fill="#d1b59a" cx="0.00" cy="0.00" transform="translate(37.64,48.66) rotate(92.4)" rx="1.16" ry="0.68"/>
<path fill="#fff4b0" d="
  M 0.00 77.94
  Q 0.91 79.25 3.50 79.25
  Q 61.75 79.29 120.00 78.81
  L 120.00 80.00
  L 0.00 80.00
  L 0.00 77.94
  Z"
/>
</svg>
